<svg xmlns="http://www.w3.org/2000/svg" xmlns:xlink="http://www.w3.org/1999/xlink" width="236.802" height="55.032" viewBox="0 0 236.802 55.032"><defs><style>.a{fill:none;}.b{clip-path:url(#a);}.c{fill:#c92026;}</style><clipPath id="a"><path class="a" d="M0,0H52.575V55.032H0Z" transform="translate(0 0.293)"/></clipPath></defs><g transform="translate(0 -0.675)"><g transform="translate(0 0.381)"><path class="a" d="M0,0H52.575V55.032H0Z" transform="translate(0 0.293)"/><g class="b"><path class="c" d="M37.619,55.032H14.955A14.811,14.811,0,0,1,4.393,50.617,14.962,14.962,0,0,1,0,40V15.03A14.961,14.961,0,0,1,4.393,4.415,14.811,14.811,0,0,1,14.955,0H37.619A14.813,14.813,0,0,1,48.182,4.415,14.96,14.96,0,0,1,52.575,15.03V40a14.961,14.961,0,0,1-4.393,10.615A14.812,14.812,0,0,1,37.619,55.032ZM34.151,38.38h.315a.4.4,0,0,1,.094.125c-.04.982-1.215,1.732-2.351,2.457A5.837,5.837,0,0,0,30,42.893a.449.449,0,0,0-.126.1v.1a14.936,14.936,0,0,0-2.222,3.406l0,0a15.448,15.448,0,0,1-1.889,2.992,18.974,18.974,0,0,0,.189,2.718l9.985-.017a.419.419,0,0,1,.092-.125A19.618,19.618,0,0,1,37.379,45.9c.954-2.842,1.941-5.78.872-8.97a4.45,4.45,0,0,1,.282-3.682.458.458,0,0,1,.127-.094c.872-1.755.562-3.49.233-5.327a17.172,17.172,0,0,1-.357-3.04V24.7a.4.4,0,0,1,.238-.1.284.284,0,0,1,.109.023c.015,0,.034.016.053.034s.037.034.053.034l.1.1a6.419,6.419,0,0,0,4.4,2.237c.172,0,.351.008.524.015l.037,0h.027c.171.008.332.015.486.015.4,0,.822-.045.88-.382a67.931,67.931,0,0,0-.866-7.051,4.628,4.628,0,0,0-.323-1.24c-.069-.189-.133-.366-.181-.536a12.535,12.535,0,0,0-3.448-3.229l-.079-.058c-.183-.133-.368-.268-.548-.4l-.278-.2c-.886-.629-2.962-2.1-2.962-2.62a.9.9,0,0,0-.286-.473c-.075-2.147-.176-3.213-.581-3.854-.423-.667-1.169-.854-2.581-1a8.88,8.88,0,0,1-2.482-.82c-1.19-.163-2.275-.34-3.415-.556-.245,0-.544-.013-.891-.028h-.03l-.062,0c-.43-.018-.917-.039-1.409-.039-1.619,0-2.6.225-3.073.707l-.209.13c-.1.058-.2.124-.3.188A10.564,10.564,0,0,0,17.99,9.113a9.4,9.4,0,0,0-1.781,4.477v.139c.055,1.711.222,6.918.871,8.978v0l-.006,0-.11-.006-.032,0c-.058,0-.117-.006-.174-.006a.55.55,0,0,0-.418.133.661.661,0,0,0-.112.517c-.058.757.172,5.41,1.13,6.445a.541.541,0,0,0,.393.2,1.132,1.132,0,0,0,.262.025,8.466,8.466,0,0,0,1.228-.156l.026,0,.3-.051a12.678,12.678,0,0,1,2.074-.212,3.723,3.723,0,0,1,3.146,1.3.046.046,0,0,1,.023-.007.03.03,0,0,1,.027.021.114.114,0,0,1,.009.05c0,.061-.03.15-.085.151-.428-.706-1.518-1.111-2.993-1.111-1.737,0-3.506.558-3.944,1.243a.573.573,0,0,0-.049.579,25.194,25.194,0,0,1-1.038,3.136l-.006.017a22.754,22.754,0,0,0-1.45,4.781,5.667,5.667,0,0,0,.477,4.958,8.391,8.391,0,0,0,4.3,3.428,13.711,13.711,0,0,0,3.243.481l.119.008.11.007c.3.023.538.033.746.033a2.227,2.227,0,0,0,1.762-.674,42.276,42.276,0,0,0,2.63-4.877c.047-.105.092-.215.136-.321l.017-.041a2.293,2.293,0,0,1,.944-1.321h.094a7.4,7.4,0,0,0,2.9-1.893l.011-.01a11.547,11.547,0,0,1,1.377-1.148ZM9.459,30.747a.444.444,0,0,1,.346.142l.1.1a36.57,36.57,0,0,0,2.237,10.24,20.472,20.472,0,0,0,2.575,5.111c1.082,1.453,2.209,2.19,3.351,2.19a2.517,2.517,0,0,0,.35-.023,1.119,1.119,0,0,0,.194.022c.081,0,.13-.019.146-.056.057-.141-.351-.533-.968-1.126l0,0C16.524,46.131,14.422,44.11,14.054,42a49.068,49.068,0,0,1-.543-8.016v-.17c0-.407,0-.728-.016-.924v-.094c-.38-.769-.067-2.559.185-4v-.007a12.965,12.965,0,0,0,.249-1.835,5.812,5.812,0,0,0-.528-1.5,3.9,3.9,0,0,1-.49-1.645c0-.106.6-.357,1.245-.623l.008,0c.766-.318,1.634-.678,1.634-.863a11.152,11.152,0,0,0-3.422,1.2,9.428,9.428,0,0,1-2.853.307H9.356c-.492.013-.916.024-1.19.061a1.033,1.033,0,0,1-.111-1.061,1.7,1.7,0,0,1,1.329-1.23c.327.034.651.08,1.011.131l.09.013.019,0h.005a15.275,15.275,0,0,0,2.106.2,3.079,3.079,0,0,0,2.517-.955c1-1.162,1.23-3.476.7-7.074v-.19a3.814,3.814,0,0,1-1.355-.351,2.922,2.922,0,0,0-.97-.273h-.034A5,5,0,0,0,9.743,15,13.451,13.451,0,0,0,6.7,24.086a.885.885,0,0,1-.549.3c-.2,0-.374-.159-.6-.434v-.126c.035-.037,2.486-5.811,2.054-6.812a.2.2,0,0,0-.2-.14.448.448,0,0,0-.182.048,12.854,12.854,0,0,0-3.572,1.192l-1.39,0H2.033l-1.066,0H.914L.9,34.919C.872,35.8,1.7,38,3,40.523c1.464,2.848,2.686,4.511,3.247,4.9-.031-1.177-.164-2.427-.305-3.751v-.011a27.646,27.646,0,0,1-.2-6.589c.528-.437.518-1.4.511-2.1v-.116h.094v-.319a.246.246,0,0,1,.126-.126A4.15,4.15,0,0,1,7.7,31.648l.005,0a4.7,4.7,0,0,0,1.418-.882h.007c.068,0,.13,0,.182-.009h.01C9.372,30.749,9.417,30.747,9.459,30.747ZM21.715,46.294c-.946,0-2.017-.031-3.275-.1a1.125,1.125,0,0,1-.156.011c-1.393,0-2.473-2.528-2.508-4.788-.032-2.046.758-3.292,2.114-3.334h3.118a8.159,8.159,0,0,1,2.513.292.628.628,0,0,1,.181.7,1.054,1.054,0,0,1-.989.558c-1.137.037-2.2.656-2.191,1.11,0,.209.233.559,1.729.559.136,0,.3,0,.509-.013l.094.01c.265.025.969.092,1.069.37.039.107-.015.236-.161.382-1.009.823-1.458,1.493-1.3,1.937.137.383.72.594,1.642.594A8.779,8.779,0,0,0,26,44.348a.726.726,0,0,1,.091-.007c.131,0,.2.055.206.165a2.762,2.762,0,0,1-1.535,1.664C23.842,46.254,22.845,46.294,21.715,46.294ZM43.907,26.384h-.221a5.879,5.879,0,0,1-4.694-3.465,8.2,8.2,0,0,1-.275-3.251c.129-1.536.546-2.59,1.146-2.892a1.2,1.2,0,0,1,.722-.311,1.232,1.232,0,0,1,.691.276.292.292,0,0,0,.057.066,4.47,4.47,0,0,1,1.141,2.182l.234.933.011.042c.567,2.271,1.423,5.7,1.522,5.849.09.233.1.374.048.458S44.116,26.384,43.907,26.384ZM30.418,22.448h-.127V21.94c0-.468.586-1.208,1.569-1.977a5.846,5.846,0,0,1,2.259-1.228h.19v.317a2.262,2.262,0,0,1,.175,2.2C33.847,22.284,31.859,22.429,30.418,22.448Z" transform="translate(0 0.293)"/></g></g><path class="c" d="M146.391,14.787a19.172,19.172,0,0,1-3.4-.3,7.76,7.76,0,0,1-1.015-.209,11.192,11.192,0,0,1-1.148-.4,7.212,7.212,0,0,1-1.385-.761,5.136,5.136,0,0,1-1.187-1.136,7.561,7.561,0,0,1-.923-1.8,8.043,8.043,0,0,1-.435-2.827,8.377,8.377,0,0,1,.581-3.1,5.017,5.017,0,0,1,1.634-2.312,8.834,8.834,0,0,1,1.9-1.1,10.337,10.337,0,0,1,1.833-.534,15.371,15.371,0,0,1,1.728-.248C145.088.02,145.683,0,146.339,0a16.909,16.909,0,0,1,2.993.209c.726.137,1.232.24,1.5.306A8.8,8.8,0,0,1,152,.921a5.16,5.16,0,0,1,1.332.78,5.541,5.541,0,0,1,1.952,2.521,8.681,8.681,0,0,1,.607,3.172,8.943,8.943,0,0,1-.607,3.193,5.422,5.422,0,0,1-1.992,2.56,8.133,8.133,0,0,1-3.257,1.3A20.645,20.645,0,0,1,146.391,14.787Zm-.026-12.335a8.688,8.688,0,0,0-1.925.217,4.21,4.21,0,0,0-2.9,2.589,6.621,6.621,0,0,0-.316,2.1,8.562,8.562,0,0,0,.514,2.66,2.816,2.816,0,0,0,2.043,1.937,10.505,10.505,0,0,0,2.586.406,8.844,8.844,0,0,0,1.979-.218,3.665,3.665,0,0,0,2.821-2.589,6.147,6.147,0,0,0,.37-2.135,5.843,5.843,0,0,0-.25-1.868c-.17-.49-.282-.79-.344-.92a3.989,3.989,0,0,0-.394-.6,3.847,3.847,0,0,0-2.031-1.3,9.681,9.681,0,0,0-1.121-.208A8.679,8.679,0,0,0,146.365,2.453ZM4.089,14.493H0V.278H5.882l4.8,10.892L15.51.278h5.829V14.491h-3.93l.317-11.051L12.9,14.492H8.652L3.667,3.342l.422,11.15Zm98.307,0H98.412V.278H108.2c.511,0,1.021.02,1.517.059.513.039,1.1.115,1.742.226a4.254,4.254,0,0,1,1.805.792A3.962,3.962,0,0,1,114.5,2.788a4.836,4.836,0,0,1,.343,1.779,4.109,4.109,0,0,1-.4,1.819,3.812,3.812,0,0,1-1.266,1.373,5.693,5.693,0,0,1-2.137.782l4.668,5.948-4.457,0-4.194-5.555H102.4v5.555Zm0-11.664v3.6h4.878a13.416,13.416,0,0,0,1.807-.1,2.694,2.694,0,0,0,1.281-.513,1.525,1.525,0,0,0,.473-1.206,1.376,1.376,0,0,0-.935-1.463,8.607,8.607,0,0,0-2.626-.316ZM26.9,14.493H22.684L30.65.278h4.22l8.1,14.212-4.43,0-1.741-3.4H28.539l-1.636,3.4ZM32.628,3.145l-2.8,5.436H35.5L32.628,3.145ZM72.51,14.492H68.368V2.788H62.3V.317H78.628V2.788H72.51v11.7Zm90.182,0h-4.168V.278h4.168V14.491Zm-34.078,0H118.194V.278h9.733a19.644,19.644,0,0,1,2.519.139,15.563,15.563,0,0,1,2.414.553A2.343,2.343,0,0,1,134.575,2.5a6.469,6.469,0,0,1,.342,1.689c0,1.34-.941,2.417-2.8,3.2a6.576,6.576,0,0,1,1.583.811,3.329,3.329,0,0,1,.976,1.038A2.564,2.564,0,0,1,135,10.517,5.485,5.485,0,0,1,134.733,12a2.237,2.237,0,0,1-.937,1.314,7.13,7.13,0,0,1-1.212.633,8.359,8.359,0,0,1-1.557.375A15.047,15.047,0,0,1,128.614,14.492ZM122.178,8.62v3.361H128a3.962,3.962,0,0,0,1.952-.386,1.363,1.363,0,0,0,.669-1.276c0-1.128-.882-1.7-2.621-1.7Zm0-5.791V6.109h5.8a4.125,4.125,0,0,0,1.951-.375,1.314,1.314,0,0,0,.687-1.245c0-1.1-.888-1.66-2.638-1.66ZM94.9,14.492H88.2a18.015,18.015,0,0,1-3.231-.247,8.963,8.963,0,0,1-2.678-1,5.955,5.955,0,0,1-2.281-2.47,7.388,7.388,0,0,1-.673-3.124l.053-.85a5.391,5.391,0,0,1,.212-1.5,8.721,8.721,0,0,1,.526-1.384,5.375,5.375,0,0,1,.739-1.146,7.848,7.848,0,0,1,1.24-1.108,5.465,5.465,0,0,1,1.978-.9A15.385,15.385,0,0,1,86.265.377c.66-.066,1.348-.1,2.045-.1H94.9v2.47H88.362a5.642,5.642,0,0,0-3.309.841,2.867,2.867,0,0,0-1.174,2.481H94.9V8.542H83.879a3.107,3.107,0,0,0,.869,2.5,3.581,3.581,0,0,0,1.623.85,12.349,12.349,0,0,0,1.991.129H94.9v2.47Zm-40.279,0h-10.6V11.941h9.97a6.293,6.293,0,0,0,2.282-.327,1.222,1.222,0,0,0,.8-1.235v-.3a1.317,1.317,0,0,0-.422-.891A2.653,2.653,0,0,0,55.637,8.8a8.077,8.077,0,0,0-1.358-.1h-4.7a9.6,9.6,0,0,1-4.692-.949,3.386,3.386,0,0,1-1.652-3.183,4.054,4.054,0,0,1,.5-2.016A3.532,3.532,0,0,1,45.1,1.177a6.338,6.338,0,0,1,2-.682,14.057,14.057,0,0,1,2.77-.217H60.35V2.829H50.512c-2.065,0-3.112.625-3.112,1.858a1.2,1.2,0,0,0,.711,1.147,3.7,3.7,0,0,0,1.821.4h5.25a20.534,20.534,0,0,1,2.717.158,5.737,5.737,0,0,1,2.228.959,3.273,3.273,0,0,1,1.147,2.9,4.253,4.253,0,0,1-.119,1.058,4.794,4.794,0,0,1-.475,1.136,3.067,3.067,0,0,1-1.214,1.147,6.085,6.085,0,0,1-2.043.693A14.738,14.738,0,0,1,54.625,14.492Z" transform="translate(65.5 23.559)"/><path class="c" d="M2.814,5.653a2.825,2.825,0,0,1-1.4-.374A2.615,2.615,0,0,1,.374,4.233a2.835,2.835,0,0,1,0-2.822A2.609,2.609,0,0,1,1.431.365,2.892,2.892,0,0,1,2.814,0,2.9,2.9,0,0,1,4.2.365,2.6,2.6,0,0,1,5.248,1.41a2.847,2.847,0,0,1,.005,2.822,2.621,2.621,0,0,1-1.04,1.046A2.835,2.835,0,0,1,2.814,5.653Zm0-5.185A2.373,2.373,0,0,0,1.661.774a2.188,2.188,0,0,0-.878.871A2.411,2.411,0,0,0,.465,2.829,2.409,2.409,0,0,0,.778,4a2.228,2.228,0,0,0,.87.873,2.336,2.336,0,0,0,2.334,0A2.225,2.225,0,0,0,4.849,4a2.373,2.373,0,0,0-.005-2.354A2.176,2.176,0,0,0,3.966.774,2.387,2.387,0,0,0,2.814.468ZM2.067,4.39H1.579V1.349H2.62a2.538,2.538,0,0,1,.772.083.759.759,0,0,1,.381.294.785.785,0,0,1,.14.445.816.816,0,0,1-.236.581.942.942,0,0,1-.628.278.812.812,0,0,1,.257.161,3.537,3.537,0,0,1,.448.6l.368.593-.6,0-.267-.48a2.453,2.453,0,0,0-.51-.706A.631.631,0,0,0,2.355,3.1H2.068V4.389Zm0-2.629v.917h.594a.947.947,0,0,0,.579-.127.436.436,0,0,0,.08-.58.469.469,0,0,0-.205-.159,1.562,1.562,0,0,0-.492-.051Z" transform="translate(231.177 18.034)"/></g></svg>